<?xml version="1.0" standalone="no"?>
<svg xmlns="http://www.w3.org/2000/svg" viewBox="0 0 188.18 53.083" width="188.18" height="53.083"><rect fill="#3f0101" width="188.18" height="53.083" x="0" y="0"></rect><path fill="white" fill-rule="nonzero" d="M5.08 14.61L5.08 14.61Q5.08 17.48 5.87 19.67Q6.66 21.86 7.96 23.35Q9.26 24.84 10.95 25.61Q12.64 26.37 14.43 26.37L14.43 26.37Q16.09 26.37 17.60 26.08Q19.10 25.80 20.33 25.12L20.33 25.12L20.33 17.64L16.29 17.64L16.29 16.07Q16.58 15.94 17.25 15.78Q17.91 15.63 18.73 15.49Q19.55 15.35 20.44 15.27Q21.33 15.20 22.09 15.20L22.09 15.20Q22.87 15.20 23.39 15.21Q23.91 15.23 24.22 15.32Q24.53 15.41 24.65 15.62Q24.77 15.82 24.77 16.19L24.77 16.19L24.77 25.61Q23.95 26.45 22.71 27.09Q21.48 27.73 20.04 28.17Q18.59 28.61 17.05 28.85Q15.51 29.08 14.08 29.08L14.08 29.08Q11.02 29.08 8.44 28.10Q5.86 27.11 3.98 25.24Q2.11 23.38 1.05 20.71Q0 18.05 0 14.69L0 14.69Q0 11.29 1.08 8.56Q2.17 5.84 4.17 3.94Q6.17 2.03 9.01 1.02Q11.86 0 15.37 0L15.37 0Q16.04 0 16.88 0.06Q17.71 0.12 18.57 0.24Q19.43 0.37 20.25 0.57Q21.07 0.76 21.71 1.04Q22.34 1.31 22.73 1.67Q23.13 2.03 23.13 2.48L23.13 2.48Q23.13 2.83 22.89 3.24L22.89 3.24L21.25 6.00Q20.61 5.64 19.66 5.06Q18.71 4.47 17.58 3.92Q16.45 3.36 15.21 2.96Q13.96 2.56 12.71 2.56L12.71 2.56Q11.31 2.56 10.21 3.03Q9.10 3.50 8.25 4.34Q7.40 5.18 6.80 6.32Q6.19 7.46 5.81 8.80Q5.43 10.14 5.25 11.62Q5.08 13.11 5.08 14.61ZM55.23 2.29L55.23 17.68Q55.23 20.49 54.35 22.62Q53.46 24.75 51.93 26.18Q50.41 27.62 48.39 28.35Q46.37 29.08 44.12 29.08L44.12 29.08Q41.29 29.08 39.06 28.35Q36.84 27.62 35.30 26.17Q33.77 24.73 32.97 22.59Q32.17 20.45 32.17 17.64L32.17 17.64L32.17 2.79L28.36 2.79L28.36 1.25Q28.65 1.13 29.24 0.98Q29.82 0.82 30.60 0.68Q31.37 0.55 32.29 0.45Q33.20 0.35 34.16 0.35L34.16 0.35Q34.96 0.35 35.46 0.37Q35.96 0.39 36.24 0.48Q36.52 0.57 36.62 0.78Q36.72 1.00 36.72 1.37L36.72 1.37L36.72 17.71Q36.72 18.73 36.88 19.79Q37.03 20.84 37.39 21.83Q37.75 22.81 38.32 23.69Q38.89 24.57 39.71 25.22Q40.53 25.88 41.62 26.26Q42.71 26.64 44.12 26.64L44.12 26.64Q45.57 26.64 46.68 26.26Q47.79 25.88 48.62 25.22Q49.45 24.57 50.02 23.69Q50.59 22.81 50.93 21.81Q51.27 20.80 51.42 19.74Q51.56 18.67 51.56 17.64L51.56 17.64L51.56 6.56Q51.56 5.35 51.49 4.41Q51.43 3.48 51.33 2.79Q51.23 2.11 51.13 1.65Q51.04 1.19 51.00 0.92L51.00 0.92Q51.19 0.78 51.47 0.67Q51.76 0.57 52.06 0.49Q52.36 0.41 52.68 0.38Q52.99 0.35 53.24 0.35L53.24 0.35Q53.63 0.35 53.99 0.44Q54.36 0.53 54.63 0.75Q54.90 0.98 55.07 1.35Q55.23 1.72 55.23 2.29L55.23 2.29ZM71.39 11.64L71.39 11.64Q72.56 12.13 73.77 12.67Q74.98 13.20 76.10 13.82Q77.23 14.43 78.21 15.16Q79.20 15.88 79.93 16.76Q80.66 17.64 81.08 18.69Q81.50 19.75 81.50 21.04L81.50 21.04Q81.50 22.95 80.74 24.44Q79.98 25.94 78.69 26.96Q77.40 27.99 75.68 28.54Q73.96 29.08 72.07 29.08L72.07 29.08Q69.53 29.08 66.98 28.44Q64.43 27.79 62.19 26.29L62.19 26.29Q61.76 26.02 61.35 25.57Q60.94 25.12 60.94 24.61L60.94 24.61Q60.94 24.20 61.23 23.89L61.23 23.89L63.22 21.52Q64.16 22.27 65.29 23.14Q66.43 24.02 67.63 24.79Q68.83 25.55 70.02 26.05Q71.21 26.56 72.27 26.56L72.27 26.56Q73.14 26.56 73.98 26.27Q74.82 25.98 75.48 25.44Q76.13 24.90 76.53 24.13Q76.93 23.36 76.93 22.40L76.93 22.40Q76.93 21.17 76.29 20.16Q75.64 19.14 74.58 18.29Q73.52 17.44 72.16 16.74Q70.80 16.04 69.38 15.45L69.38 15.45Q67.01 14.45 65.55 13.45Q64.08 12.44 63.27 11.44Q62.46 10.43 62.18 9.43Q61.89 8.44 61.89 7.48L61.89 7.48Q61.89 6.04 62.38 4.92Q62.87 3.81 63.70 2.98Q64.53 2.15 65.64 1.58Q66.76 1.02 68.01 0.66Q69.26 0.31 70.58 0.16Q71.89 0 73.14 0L73.14 0Q73.69 0 74.43 0.05Q75.18 0.10 75.98 0.20Q76.78 0.29 77.56 0.46Q78.34 0.63 78.96 0.87Q79.57 1.11 79.95 1.45Q80.33 1.78 80.33 2.21L80.33 2.21Q80.33 2.54 80.10 2.97L80.10 2.97L78.54 5.64Q77.68 5.16 76.76 4.61Q75.84 4.06 74.84 3.62Q73.85 3.18 72.78 2.89Q71.72 2.60 70.55 2.60L70.55 2.60Q69.73 2.60 68.96 2.85Q68.20 3.11 67.64 3.62Q67.07 4.14 66.73 4.91Q66.39 5.68 66.39 6.72L66.39 6.72Q66.39 7.60 66.81 8.32Q67.23 9.04 67.92 9.65Q68.61 10.25 69.51 10.74Q70.41 11.23 71.39 11.64ZM94.71 26.72L94.71 3.48Q92.87 3.48 91.24 3.61Q89.61 3.75 88.27 3.93Q86.93 4.10 85.95 4.27Q84.96 4.43 84.43 4.51L84.43 4.51Q84.43 4.49 84.38 4.26Q84.34 4.02 84.26 3.65Q84.18 3.28 84.12 2.86Q84.06 2.44 84.06 2.13L84.06 2.13Q84.06 1.48 84.64 1.18Q85.21 0.88 86.21 0.77Q87.21 0.66 88.54 0.69Q89.86 0.72 91.39 0.72L91.39 0.72L97.11 0.72Q98.01 0.72 99.32 0.72Q100.63 0.72 102.24 0.66Q103.85 0.61 105.69 0.47Q107.54 0.33 109.47 0.08L109.47 0.08L109.47 0.08Q109.47 0.10 109.53 0.28Q109.59 0.47 109.65 0.77Q109.71 1.07 109.77 1.46Q109.82 1.84 109.82 2.25L109.82 2.25Q109.82 2.73 109.48 3.01Q109.14 3.28 108.57 3.41Q108.01 3.54 107.28 3.56Q106.54 3.59 105.74 3.59L105.74 3.59Q103.52 3.59 101.97 3.55Q100.43 3.52 99.32 3.48L99.32 3.48L99.32 22.17Q99.32 23.42 99.38 24.38Q99.45 25.33 99.55 26.04Q99.65 26.76 99.75 27.24Q99.84 27.71 99.90 28.01L99.90 28.01Q99.61 28.16 99.26 28.29Q98.91 28.42 98.53 28.51Q98.14 28.59 97.77 28.63Q97.40 28.67 97.07 28.67L97.07 28.67Q96.56 28.67 96.12 28.57Q95.68 28.48 95.37 28.25Q95.06 28.03 94.88 27.66Q94.71 27.29 94.71 26.72L94.71 26.72ZM137.91 2.29L137.91 17.68Q137.91 20.49 137.02 22.62Q136.13 24.75 134.61 26.18Q133.09 27.62 131.06 28.35Q129.04 29.08 126.80 29.08L126.80 29.08Q123.96 29.08 121.74 28.35Q119.51 27.62 117.98 26.17Q116.45 24.73 115.64 22.59Q114.84 20.45 114.84 17.64L114.84 17.64L114.84 2.79L111.04 2.79L111.04 1.25Q111.33 1.13 111.91 0.98Q112.50 0.82 113.27 0.68Q114.04 0.55 114.96 0.45Q115.88 0.35 116.84 0.35L116.84 0.35Q117.64 0.35 118.13 0.37Q118.63 0.39 118.92 0.48Q119.20 0.57 119.30 0.78Q119.39 1.00 119.39 1.37L119.39 1.37L119.39 17.71Q119.39 18.73 119.55 19.79Q119.71 20.84 120.07 21.83Q120.43 22.81 121.00 23.69Q121.56 24.57 122.38 25.22Q123.20 25.88 124.30 26.26Q125.39 26.64 126.80 26.64L126.80 26.64Q128.24 26.64 129.36 26.26Q130.47 25.88 131.30 25.22Q132.13 24.57 132.70 23.69Q133.26 22.81 133.60 21.81Q133.95 20.80 134.09 19.74Q134.24 18.67 134.24 17.64L134.24 17.64L134.24 6.56Q134.24 5.35 134.17 4.41Q134.10 3.48 134.00 2.79Q133.91 2.11 133.81 1.65Q133.71 1.19 133.67 0.92L133.67 0.92Q133.87 0.78 134.15 0.67Q134.43 0.57 134.74 0.49Q135.04 0.41 135.35 0.38Q135.66 0.35 135.92 0.35L135.92 0.35Q136.31 0.35 136.67 0.44Q137.03 0.53 137.30 0.75Q137.58 0.98 137.74 1.35Q137.91 1.72 137.91 2.29L137.91 2.29ZM154.06 11.64L154.06 11.64Q155.23 12.13 156.45 12.67Q157.66 13.20 158.78 13.82Q159.90 14.43 160.89 15.16Q161.88 15.88 162.61 16.76Q163.34 17.64 163.76 18.69Q164.18 19.75 164.18 21.04L164.18 21.04Q164.18 22.95 163.42 24.44Q162.66 25.94 161.37 26.96Q160.08 27.99 158.36 28.54Q156.64 29.08 154.75 29.08L154.75 29.08Q152.21 29.08 149.66 28.44Q147.11 27.79 144.86 26.29L144.86 26.29Q144.43 26.02 144.02 25.57Q143.61 25.12 143.61 24.61L143.61 24.61Q143.61 24.20 143.91 23.89L143.91 23.89L145.90 21.52Q146.84 22.27 147.97 23.14Q149.10 24.02 150.30 24.79Q151.50 25.55 152.70 26.05Q153.89 26.56 154.94 26.56L154.94 26.56Q155.82 26.56 156.66 26.27Q157.50 25.98 158.15 25.44Q158.81 24.90 159.21 24.13Q159.61 23.36 159.61 22.40L159.61 22.40Q159.61 21.17 158.96 20.16Q158.32 19.14 157.26 18.29Q156.19 17.44 154.83 16.74Q153.48 16.04 152.05 15.45L152.05 15.45Q149.69 14.45 148.22 13.45Q146.76 12.44 145.95 11.44Q145.14 10.43 144.85 9.43Q144.57 8.44 144.57 7.48L144.57 7.48Q144.57 6.04 145.06 4.92Q145.55 3.81 146.38 2.98Q147.21 2.15 148.32 1.58Q149.43 1.02 150.68 0.66Q151.93 0.31 153.25 0.16Q154.57 0 155.82 0L155.82 0Q156.37 0 157.11 0.05Q157.85 0.10 158.65 0.20Q159.45 0.29 160.23 0.46Q161.02 0.63 161.63 0.87Q162.25 1.11 162.63 1.45Q163.01 1.78 163.01 2.21L163.01 2.21Q163.01 2.54 162.77 2.97L162.77 2.97L161.21 5.64Q160.35 5.16 159.43 4.61Q158.52 4.06 157.52 3.62Q156.52 3.18 155.46 2.89Q154.39 2.60 153.22 2.60L153.22 2.60Q152.40 2.60 151.64 2.85Q150.88 3.11 150.31 3.62Q149.75 4.14 149.40 4.91Q149.06 5.68 149.06 6.72L149.06 6.72Q149.06 7.60 149.48 8.32Q149.90 9.04 150.60 9.65Q151.29 10.25 152.19 10.74Q153.09 11.23 154.06 11.64Z" transform="translate(12 12) scale(1)"></path></svg>